<?xml version="1.0" standalone="no"?>
<!DOCTYPE svg PUBLIC "-//W3C//DTD SVG 20010904//EN"
 "http://www.w3.org/TR/2001/REC-SVG-20010904/DTD/svg10.dtd">
<svg version="1.0" xmlns="http://www.w3.org/2000/svg"
 width="1280.000000pt" height="1280.000000pt" viewBox="-100 -100 1480.000000 1480.000000"
 preserveAspectRatio="xMidYMid meet">
<metadata>
Created by potrace 1.15, written by Peter Selinger 2001-2017
</metadata>
<g transform="translate(0.000000,1280.000000) scale(0.100000,-0.100000)"
stroke="none">
<path d="M5892 12785 c-465 -82 -827 -441 -907 -901 -17 -100 -20 -280 -4
-374 37 -231 147 -445 314 -613 32 -32 56 -59 54 -61 -2 -1 -79 -42 -172 -90
-796 -412 -1406 -913 -1865 -1531 -376 -507 -602 -1036 -689 -1617 -24 -163
-24 -551 0 -708 99 -626 409 -1100 902 -1379 50 -28 96 -54 103 -58 10 -6 -65
-201 -309 -808 -177 -440 -324 -807 -326 -816 -6 -21 160 -232 244 -308 397
-364 1069 -606 1988 -716 66 -8 139 -15 163 -15 23 0 42 -4 42 -10 0 -14 -287
-226 -415 -308 -303 -192 -556 -268 -802 -243 -177 19 -313 65 -531 184 -205
111 -337 155 -534 178 -126 14 -393 7 -535 -16 -263 -41 -592 -141 -923 -282
-521 -220 -1237 -652 -1611 -972 l-78 -66 -1 -116 0 -116 478 -511 477 -510
44 -1 c40 -1 56 7 175 93 362 258 599 369 981 461 357 85 475 94 1380 105 424
5 840 14 925 20 480 34 848 111 1205 252 91 36 321 146 374 180 19 11 27 10
69 -15 326 -191 676 -309 1092 -367 309 -43 375 -45 1308 -42 590 2 951 0
1065 -8 789 -52 1339 -237 1872 -629 l70 -51 96 0 97 0 546 506 546 506 0 145
0 144 -97 46 c-1073 499 -2234 919 -2953 1066 -277 57 -401 71 -640 71 -213 1
-231 -1 -340 -27 -211 -52 -424 -96 -545 -113 -170 -25 -525 -25 -650 -1 -278
55 -459 136 -732 330 -122 86 -145 107 -120 107 8 0 79 7 158 15 924 98 1645
352 2053 726 76 68 258 288 253 303 -3 6 -156 372 -341 813 -185 442 -336 807
-336 812 0 5 14 14 30 21 17 7 70 36 119 65 490 290 802 807 872 1445 19 173
7 525 -24 701 -67 380 -185 716 -372 1059 -446 817 -1214 1523 -2200 2022 -77
39 -142 72 -143 74 -2 1 15 19 38 40 108 98 237 299 288 449 109 322 63 687
-123 972 -156 238 -392 404 -675 473 -112 28 -314 35 -428 15z"/>
</g>
</svg>
