<?xml version="1.0" standalone="no"?>
<!DOCTYPE svg PUBLIC "-//W3C//DTD SVG 20010904//EN"
 "http://www.w3.org/TR/2001/REC-SVG-20010904/DTD/svg10.dtd">
<svg version="1.0" xmlns="http://www.w3.org/2000/svg"
 width="640.000000pt" height="1280.000000pt" viewBox="0 0 640.000000 1280.000000"
 preserveAspectRatio="xMidYMid meet">
<metadata>
Created by potrace 1.15, written by Peter Selinger 2001-2017
</metadata>
<g transform="translate(0.000000,1280.000000) scale(0.100000,-0.100000)"
fill="#000000" stroke="none">
<path d="M2763 12332 c-160 -257 -299 -481 -309 -498 l-18 -31 135 -208 c74
-114 143 -222 154 -238 11 -17 15 -28 10 -25 -16 10 -545 248 -551 248 -3 0
-3 -30 0 -67 3 -38 11 -305 18 -595 6 -291 15 -528 19 -528 3 0 119 48 255
106 137 58 259 110 271 115 21 8 18 0 -22 -74 -25 -45 -78 -142 -117 -214
l-72 -133 -47 0 c-37 0 -52 -5 -73 -26 -36 -37 -36 -91 1 -128 14 -14 24 -28
22 -30 -2 -1 -40 -18 -84 -36 -288 -118 -408 -225 -408 -364 0 -35 19 -110 61
-241 143 -445 374 -1346 351 -1370 -2 -2 -42 -9 -89 -15 -92 -12 -125 -27
-142 -65 -24 -54 21 -106 104 -120 32 -6 37 -9 27 -21 -6 -8 -8 -25 -5 -39 6
-23 4 -25 -26 -25 -44 -1 -114 -33 -128 -60 -6 -11 -10 -30 -8 -42 3 -18 -13
-26 -130 -69 -74 -26 -153 -59 -177 -74 -125 -73 -110 -182 34 -254 31 -16
195 -86 364 -156 l309 -128 -59 -18 c-66 -21 -93 -47 -93 -94 0 -39 22 -61 86
-84 l49 -17 3 -314 c12 -1224 -193 -2716 -461 -3353 -40 -94 -44 -100 -89
-123 -63 -32 -80 -60 -84 -138 -1 -40 -9 -75 -20 -91 -12 -18 -18 -49 -19 -98
-1 -42 -8 -88 -18 -111 -41 -94 -179 -317 -435 -703 -183 -276 -255 -423 -288
-584 -23 -113 -15 -194 28 -279 21 -41 47 -75 74 -95 49 -37 94 -92 94 -116 0
-13 -13 -20 -58 -29 -109 -22 -247 -61 -302 -86 -91 -42 -90 -39 -90 -184 0
-145 -2 -142 93 -185 230 -106 885 -186 1745 -215 1224 -41 2546 58 2889 215
95 43 93 40 93 185 0 145 2 142 -93 185 -60 28 -253 80 -336 91 -63 8 -65 22
-9 72 93 83 139 137 168 195 78 162 80 329 5 477 -13 25 -90 135 -171 245
-306 414 -483 673 -546 800 -14 28 -28 77 -31 113 -4 34 -13 75 -21 90 -7 15
-16 55 -19 89 -6 73 -30 120 -75 148 -75 48 -207 388 -326 845 -204 783 -386
2083 -386 2766 l0 192 43 11 c64 15 97 45 97 86 0 51 -27 75 -106 95 -62 16
-67 19 -44 28 14 5 156 57 315 115 345 125 361 132 403 164 70 53 79 114 25
174 -43 48 -71 63 -258 140 -129 53 -140 59 -146 86 -3 17 -9 35 -14 42 -13
22 -88 51 -133 51 -40 0 -42 1 -32 20 7 14 8 26 0 39 -9 18 -6 20 37 27 58 8
82 19 105 48 48 58 -3 118 -117 137 l-75 13 0 36 c0 101 172 930 292 1405 87
347 72 365 -480 567 l-24 8 26 31 c54 63 16 149 -65 149 l-39 0 -105 210 c-58
116 -102 210 -98 210 5 0 273 -104 511 -197 9 -4 12 119 12 596 0 331 -4 601
-8 601 -4 0 -125 -62 -267 -138 -143 -77 -262 -138 -263 -136 -2 1 54 114 124
251 l127 248 -248 410 c-137 226 -268 442 -290 482 l-41 71 -291 -466z"/>
</g>
</svg>
