<?xml version="1.0" standalone="no"?>
<!DOCTYPE svg PUBLIC "-//W3C//DTD SVG 20010904//EN"
 "http://www.w3.org/TR/2001/REC-SVG-20010904/DTD/svg10.dtd">
<svg version="1.0" xmlns="http://www.w3.org/2000/svg"
 width="1280.000000pt" height="1260.000000pt" viewBox="0 0 1280.000000 1260.000000"
 preserveAspectRatio="xMidYMid meet">
<metadata>
Created by potrace 1.15, written by Peter Selinger 2001-2017
</metadata>
<g transform="translate(0.000000,1260.000000) scale(0.100000,-0.100000)"
fill="#000000" stroke="none">
<path d="M5607 12586 c-20 -8 -51 -24 -67 -37 -16 -13 -217 -244 -446 -514
-228 -269 -419 -489 -422 -488 -4 1 -360 201 -792 443 -871 491 -860 484 -913
494 -99 18 -214 -57 -241 -158 -11 -40 -17 -226 -25 -866 -6 -448 -11 -865
-11 -926 l0 -111 -77 -64 c-123 -100 -400 -383 -505 -514 -374 -469 -548 -948
-509 -1399 7 -82 24 -184 42 -258 l31 -123 -23 -80 c-75 -263 -213 -498 -654
-1121 -691 -973 -867 -1335 -972 -1994 -71 -448 51 -836 361 -1145 146 -146
281 -233 461 -298 152 -54 343 -74 520 -54 l71 8 -4 -66 c-9 -144 36 -264 137
-366 55 -55 87 -77 186 -125 66 -32 140 -71 165 -86 27 -17 67 -31 95 -34 129
-15 334 70 497 205 177 147 296 299 665 846 252 374 331 487 457 650 247 320
519 582 786 760 181 120 276 168 450 226 414 137 846 338 1154 536 l99 64 -7
-133 c-25 -466 -130 -860 -345 -1303 -228 -467 -510 -872 -1106 -1585 -438
-525 -690 -856 -849 -1118 -250 -413 -374 -778 -392 -1161 -9 -182 20 -432 63
-548 20 -54 89 -118 142 -133 29 -8 1288 -8 4518 -3 l4478 8 48 24 c55 27 102
84 118 145 11 41 -22 480 -117 1525 -298 3310 -860 5557 -1787 7146 -457 783
-1032 1394 -1673 1776 -631 375 -1382 554 -2145 511 -116 -7 -283 -22 -371
-33 -88 -11 -161 -19 -163 -17 -1 2 -119 248 -260 548 -410 868 -406 860 -453
902 -62 56 -138 71 -215 44z"/>
</g>
</svg>
