<?xml version="1.0" standalone="no"?>
<!DOCTYPE svg PUBLIC "-//W3C//DTD SVG 20010904//EN"
 "http://www.w3.org/TR/2001/REC-SVG-20010904/DTD/svg10.dtd">
<svg version="1.0" xmlns="http://www.w3.org/2000/svg"
 width="719.000000pt" height="1280.000000pt" viewBox="0 0 719.000000 1280.000000"
 preserveAspectRatio="xMidYMid meet">
<metadata>
Created by potrace 1.15, written by Peter Selinger 2001-2017
</metadata>
<g transform="translate(0.000000,1280.000000) scale(0.100000,-0.100000)"
fill="#000000" stroke="none">
<path d="M3365 12789 c-679 -64 -1290 -429 -1627 -972 -268 -430 -333 -964
-178 -1447 61 -191 196 -433 331 -595 l58 -70 -77 -13 c-668 -113 -1000 -229
-1097 -382 l-24 -38 -1 -615 c-1 -420 2 -621 9 -635 15 -29 77 -75 146 -109
242 -122 781 -228 1435 -284 74 -6 136 -12 137 -13 1 -1 -108 -1171 -123
-1312 l-6 -60 -175 -37 c-199 -43 -373 -97 -487 -153 -98 -48 -182 -121 -195
-172 -7 -22 -11 -274 -11 -650 0 -549 1 -617 16 -648 46 -97 240 -195 529
-269 l130 -34 -3 -92 c-2 -51 -7 -100 -12 -109 -6 -12 -43 -21 -147 -34 -600
-77 -1197 -237 -1555 -417 -188 -94 -350 -233 -401 -341 l-27 -57 -1 -1200 0
-1199 24 -49 c148 -291 905 -557 1959 -687 464 -58 881 -85 1418 -93 1185 -17
2334 118 3055 360 396 132 620 275 697 443 l23 49 0 1185 0 1185 -29 60 c-37
75 -153 194 -254 258 -335 216 -949 399 -1662 497 -85 12 -164 23 -176 25 -19
4 -22 15 -30 110 l-9 106 25 6 c272 63 486 146 575 225 85 75 80 25 83 725 3
602 2 624 -17 661 -61 121 -297 228 -676 309 -93 19 -171 37 -173 38 -2 2
-131 1338 -132 1366 0 4 35 10 78 13 724 62 1236 162 1492 291 95 48 145 94
160 146 12 40 13 1264 1 1234 -7 -18 -9 -18 -24 10 -76 146 -450 281 -1039
376 -73 11 -134 22 -136 24 -1 1 25 35 60 76 182 218 316 497 380 789 19 91
22 134 23 330 0 196 -3 239 -23 334 -89 422 -317 791 -663 1073 -446 362
-1052 539 -1654 482z"/>
</g>
</svg>
