<?xml version="1.0" standalone="no"?>
<!DOCTYPE svg PUBLIC "-//W3C//DTD SVG 20010904//EN"
 "http://www.w3.org/TR/2001/REC-SVG-20010904/DTD/svg10.dtd">
<svg version="1.0" xmlns="http://www.w3.org/2000/svg"
 width="1280.000000pt" height="1203.000000pt" viewBox="0 0 1280.000000 1203.000000"
 preserveAspectRatio="xMidYMid meet">
<metadata>
Created by potrace 1.15, written by Peter Selinger 2001-2017
</metadata>
<g transform="translate(0.000000,1203.000000) scale(0.100000,-0.100000)"
fill="#000000" stroke="none">
<path d="M6268 12020 c-249 -45 -490 -211 -622 -428 -127 -210 -152 -500 -63
-745 59 -161 187 -316 357 -430 l86 -58 -168 -967 c-233 -1342 -460 -2627
-519 -2940 -27 -144 -49 -267 -49 -272 0 -17 -17 -11 -23 8 -3 9 -48 136 -100
282 -204 569 -1187 3413 -1187 3434 0 7 29 36 65 65 102 83 203 230 266 388
38 94 52 228 39 378 -10 116 -21 150 -90 284 -84 164 -197 281 -362 376 -326
189 -718 137 -1009 -133 -337 -313 -372 -802 -84 -1168 71 -89 156 -162 272
-230 51 -30 98 -64 104 -76 16 -29 13 -108 -26 -801 -83 -1476 -97 -1718 -135
-2380 -22 -384 -40 -714 -40 -734 0 -20 -3 -34 -6 -30 -6 6 -591 1205 -891
1827 -356 739 -583 1231 -585 1269 -1 9 28 60 65 113 204 300 247 570 136 858
-105 273 -295 447 -571 522 -71 19 -108 23 -248 23 -140 0 -177 -4 -248 -23
-276 -75 -466 -248 -572 -524 -164 -425 37 -915 445 -1081 33 -13 104 -39 158
-57 76 -26 98 -38 102 -54 2 -12 54 -424 115 -916 279 -2244 435 -3429 460
-3488 6 -13 227 -289 493 -615 366 -449 489 -606 509 -652 14 -33 119 -273
232 -533 l206 -473 -165 -379 c-207 -478 -317 -752 -323 -811 -9 -90 54 -165
222 -264 514 -302 1232 -505 2016 -570 328 -27 3508 -15 3911 15 515 38 1211
230 1670 460 306 154 408 246 397 359 -6 59 -116 333 -323 811 l-165 379 206
473 c113 260 218 500 232 533 20 46 143 203 509 652 266 326 487 602 493 615
25 59 181 1244 460 3488 61 492 113 904 115 916 4 16 26 28 102 54 221 75 322
131 419 232 232 241 304 596 184 906 -106 276 -296 449 -572 524 -71 19 -108
23 -248 23 -140 0 -177 -4 -248 -23 -276 -75 -466 -249 -571 -522 -111 -288
-68 -558 136 -858 37 -53 66 -104 65 -113 -2 -38 -229 -530 -585 -1269 -300
-622 -885 -1821 -891 -1827 -3 -4 -6 10 -6 30 0 20 -18 350 -40 734 -22 384
-54 937 -70 1228 -115 2028 -109 1919 -91 1953 6 12 53 46 104 76 171 101 286
220 371 386 70 135 87 198 93 335 7 149 -7 239 -52 345 -55 133 -112 218 -210
315 -305 304 -734 349 -1085 112 -160 -108 -288 -268 -351 -439 -25 -68 -49
-204 -49 -278 0 -240 133 -523 316 -672 35 -28 64 -57 64 -64 0 -21 -983
-2865 -1187 -3434 -52 -146 -97 -273 -100 -282 -6 -19 -23 -25 -23 -8 0 5 -22
128 -49 272 -59 313 -286 1598 -519 2940 l-168 967 86 58 c277 186 410 433
410 758 0 137 -17 209 -77 332 -121 248 -323 422 -575 493 -82 24 -272 35
-350 20z"/>
</g>
</svg>
